<svg width="135" height="98" viewBox="0 0 135 98" fill="none" xmlns="http://www.w3.org/2000/svg">
<path d="M50.2891 2.36404C50.2891 1.05841 51.3475 0 52.6531 0H81.8812C83.1868 0 84.2452 1.05841 84.2452 2.36404V2.36404C84.2452 3.66966 83.1868 4.72807 81.8812 4.72807H52.6531C51.3475 4.72807 50.2891 3.66966 50.2891 2.36404V2.36404Z" fill="#FAF0E4"/>
<path d="M40.4043 6.66225C40.4043 5.35663 41.4627 4.29822 42.7683 4.29822H91.7683C93.0739 4.29822 94.1324 5.35663 94.1324 6.66225V6.66225C94.1324 7.96787 93.074 9.02629 91.7683 9.02629H42.7683C41.4627 9.02629 40.4043 7.96787 40.4043 6.66225V6.66225Z" fill="#FAF0E4"/>
<path d="M35.6758 10.9605C35.6758 9.65485 36.7342 8.59644 38.0398 8.59644H96.496C97.8016 8.59644 98.86 9.65485 98.86 10.9605V10.9605C98.86 12.2661 97.8016 13.3245 96.496 13.3245H38.0398C36.7342 13.3245 35.6758 12.2661 35.6758 10.9605V10.9605Z" fill="#EFE2D3"/>
<path d="M32.2363 15.2588C32.2363 13.9532 33.2947 12.8948 34.6004 12.8948H99.9337C101.239 12.8948 102.298 13.9532 102.298 15.2588V15.2588C102.298 16.5644 101.239 17.6228 99.9337 17.6228H34.6004C33.2947 17.6228 32.2363 16.5644 32.2363 15.2588V15.2588Z" fill="#EFE2D3"/>
<path d="M27.5078 19.557C27.5078 18.2514 28.5662 17.193 29.8718 17.193H104.661C105.967 17.193 107.025 18.2514 107.025 19.557V19.557C107.025 20.8626 105.967 21.9211 104.661 21.9211H29.8718C28.5662 21.9211 27.5078 20.8626 27.5078 19.557V19.557Z" fill="#EFE2D3"/>
<path d="M23.6406 23.8552C23.6406 22.5496 24.699 21.4912 26.0047 21.4912H108.531C109.837 21.4912 110.895 22.5496 110.895 23.8552V23.8552C110.895 25.1609 109.837 26.2193 108.531 26.2193H26.0047C24.699 26.2193 23.6406 25.1609 23.6406 23.8552V23.8552Z" fill="#E2D2BF"/>
<path d="M19.3418 28.1535C19.3418 26.8478 20.4002 25.7894 21.7058 25.7894H112.829C114.134 25.7894 115.193 26.8478 115.193 28.1535V28.1535C115.193 29.4591 114.134 30.5175 112.829 30.5175H21.7058C20.4002 30.5175 19.3418 29.4591 19.3418 28.1535V28.1535Z" fill="#E2D2BF"/>
<path d="M18.0527 32.4518C18.0527 31.1462 19.1111 30.0878 20.4168 30.0878H114.119C115.424 30.0878 116.483 31.1462 116.483 32.4518V32.4518C116.483 33.7574 115.424 34.8158 114.119 34.8158H20.4168C19.1111 34.8158 18.0527 33.7574 18.0527 32.4518V32.4518Z" fill="#F1D7D7"/>
<path d="M15.043 36.75C15.043 35.4444 16.1014 34.386 17.407 34.386H117.126C118.432 34.386 119.49 35.4444 119.49 36.75V36.75C119.49 38.0556 118.432 39.1141 117.126 39.1141H17.407C16.1014 39.1141 15.043 38.0556 15.043 36.75V36.75Z" fill="#F1D7D7"/>
<path d="M15.043 41.0482C15.043 39.7426 16.1014 38.6842 17.407 38.6842H117.126C118.432 38.6842 119.49 39.7426 119.49 41.0482V41.0482C119.49 42.3539 118.432 43.4123 117.126 43.4123H17.407C16.1014 43.4123 15.043 42.3539 15.043 41.0482V41.0482Z" fill="#FEECEC"/>
<path d="M15.043 45.3465C15.043 44.0408 16.1014 42.9824 17.407 42.9824H117.126C118.432 42.9824 119.49 44.0408 119.49 45.3465V45.3465C119.49 46.6521 118.432 47.7105 117.126 47.7105H17.407C16.1014 47.7105 15.043 46.6521 15.043 45.3465V45.3465Z" fill="#FEECEC"/>
<path d="M0 52.6535C0 51.3478 1.05841 50.2894 2.36404 50.2894H132.171C133.477 50.2894 134.535 51.3478 134.535 52.6535V52.6535C134.535 53.9591 133.477 55.0175 132.171 55.0175H2.36402C1.0584 55.0175 0 53.9591 0 52.6535V52.6535Z" fill="#9BCDD2"/>
<path d="M0 56.9518C0 55.6462 1.05841 54.5878 2.36404 54.5878H132.171C133.477 54.5878 134.535 55.6462 134.535 56.9518V56.9518C134.535 58.2574 133.477 59.3158 132.171 59.3158H2.36402C1.0584 59.3158 0 58.2574 0 56.9518V56.9518Z" fill="#9BCDD2"/>
<path d="M0 61.25C0 59.9444 1.05841 58.886 2.36404 58.886H132.171C133.477 58.886 134.535 59.9444 134.535 61.25V61.25C134.535 62.5556 133.477 63.6141 132.171 63.6141H2.36402C1.0584 63.6141 0 62.5556 0 61.25V61.25Z" fill="#535353"/>
<path d="M5.58789 65.5482C5.58789 64.2426 6.64631 63.1842 7.95193 63.1842H126.584C127.889 63.1842 128.948 64.2426 128.948 65.5482V65.5482C128.948 66.8539 127.889 67.9123 126.584 67.9123H7.95193C6.64631 67.9123 5.58789 66.8539 5.58789 65.5482V65.5482Z" fill="#535353"/>
<path d="M5.58789 69.8465C5.58789 68.5408 6.64631 67.4824 7.95193 67.4824H126.584C127.889 67.4824 128.948 68.5408 128.948 69.8465V69.8465C128.948 71.1521 127.889 72.2105 126.584 72.2105H7.95193C6.64631 72.2105 5.58789 71.1521 5.58789 69.8465V69.8465Z" fill="#C87855"/>
<path d="M10.3164 74.1448C10.3164 72.8392 11.3748 71.7808 12.6804 71.7808H121.856C123.162 71.7808 124.22 72.8392 124.22 74.1448V74.1448C124.22 75.4504 123.162 76.5088 121.856 76.5088H12.6804C11.3748 76.5088 10.3164 75.4504 10.3164 74.1448V74.1448Z" fill="#C87855"/>
<path d="M15.9043 78.443C15.9043 77.1374 16.9627 76.079 18.2683 76.079H116.268C117.574 76.079 118.632 77.1374 118.632 78.443V78.443C118.632 79.7486 117.574 80.807 116.268 80.807H18.2683C16.9627 80.807 15.9043 79.7486 15.9043 78.443V78.443Z" fill="#F58C5F"/>
<path d="M21.4922 82.7412C21.4922 81.4356 22.5506 80.3772 23.8562 80.3772H110.681C111.986 80.3772 113.045 81.4356 113.045 82.7412V82.7412C113.045 84.0469 111.986 85.1053 110.681 85.1053H23.8562C22.5506 85.1053 21.4922 84.0469 21.4922 82.7412V82.7412Z" fill="#F58C5F"/>
<path d="M26.6484 87.0395C26.6484 85.7338 27.7069 84.6754 29.0125 84.6754H105.521C106.827 84.6754 107.885 85.7338 107.885 87.0395V87.0395C107.885 88.3451 106.827 89.4035 105.521 89.4035H29.0125C27.7069 89.4035 26.6484 88.3451 26.6484 87.0395V87.0395Z" fill="#F58C5F"/>
<path d="M32.2363 91.3377C32.2363 90.032 33.2947 88.9736 34.6004 88.9736H99.9337C101.239 88.9736 102.298 90.032 102.298 91.3377V91.3377C102.298 92.6433 101.239 93.7017 99.9337 93.7017H34.6004C33.2947 93.7017 32.2363 92.6433 32.2363 91.3377V91.3377Z" fill="#FFA781"/>
<path d="M45.1309 95.636C45.1309 94.3304 46.1893 93.272 47.4949 93.272H87.0388C88.3444 93.272 89.4028 94.3304 89.4028 95.636V95.636C89.4028 96.9416 88.3444 98 87.0388 98H47.4949C46.1893 98 45.1309 96.9416 45.1309 95.636V95.636Z" fill="#FFA781"/>
</svg>
